# xmcd
#
# Track frame offsets:
#  183
#  16718
#  31835
#
# Disc length: 655 seconds
#
# Revision: 0
# Processed by: cddbd v1.5.1PL2 Copyright (c) Steve Scherf et al.
# Submitted via: Collectorz.com_Music_Collector 6.9
#
DISCID=12028d03
DTITLE=Normaal - As I-J Der Niet Bunt
DYEAR=1989
DGENRE=Dutch
TTITLE0=As I-J Der Niet Bunt
TTITLE1=`t Marathonlied
TTITLE2=De Prosh - -J Moar Geld Hebt
EXTD=
EXTT0=
EXTT1=
EXTT2=
PLAYORDER=
